<?xml version="1.0" encoding="UTF-8" standalone="no"?><!DOCTYPE svg PUBLIC "-//W3C//DTD SVG 1.1//EN" "http://www.w3.org/Graphics/SVG/1.1/DTD/svg11.dtd"><!-- Generated by graphviz version 2.40.1 (20161225.0304)
 --><!-- Title: %0 Pages: 1 --><svg xmlns="http://www.w3.org/2000/svg" xmlns:xlink="http://www.w3.org/1999/xlink" width="1408pt" height="548pt" viewBox="0.00 0.00 1408.49 548.00">
<g id="graph0" class="graph" transform="scale(1 1) rotate(0) translate(4 544)">
<title>%0</title>
<polygon fill="#ffffff" stroke="transparent" points="-4,4 -4,-544 1404.4877,-544 1404.4877,4 -4,4"/>
<!-- [root] aws_autoscaling_group.example (expand) -->
<g id="node1" class="node">
<title>[root] aws_autoscaling_group.example (expand)</title>
<polygon fill="none" stroke="#000000" points="700.6849,-396 501.4617,-396 501.4617,-360 700.6849,-360 700.6849,-396"/>
<text text-anchor="middle" x="601.0733" y="-373.8" font-family="Times,serif" font-size="14.00" fill="#000000">aws_autoscaling_group.example</text>
</g>
<!-- [root] aws_launch_configuration.example (expand) -->
<g id="node3" class="node">
<title>[root] aws_launch_configuration.example (expand)</title>
<polygon fill="none" stroke="#000000" points="847.0065,-324 631.1401,-324 631.1401,-288 847.0065,-288 847.0065,-324"/>
<text text-anchor="middle" x="739.0733" y="-301.8" font-family="Times,serif" font-size="14.00" fill="#000000">aws_launch_configuration.example</text>
</g>
<!-- [root] aws_autoscaling_group.example (expand)&#45;&gt;[root] aws_launch_configuration.example (expand) -->
<g id="edge1" class="edge">
<title>[root] aws_autoscaling_group.example (expand)-&gt;[root] aws_launch_configuration.example (expand)</title>
<path fill="none" stroke="#000000" d="M635.8965,-359.8314C653.8744,-350.4516 675.9936,-338.9112 695.1349,-328.9244"/>
<polygon fill="#000000" stroke="#000000" points="697.0144,-331.8916 704.2612,-324.1628 693.7764,-325.6855 697.0144,-331.8916"/>
</g>
<!-- [root] aws_lb_target_group.asg (expand) -->
<g id="node7" class="node">
<title>[root] aws_lb_target_group.asg (expand)</title>
<polygon fill="none" stroke="#000000" points="613.4209,-324 456.7257,-324 456.7257,-288 613.4209,-288 613.4209,-324"/>
<text text-anchor="middle" x="535.0733" y="-301.8" font-family="Times,serif" font-size="14.00" fill="#000000">aws_lb_target_group.asg</text>
</g>
<!-- [root] aws_autoscaling_group.example (expand)&#45;&gt;[root] aws_lb_target_group.asg (expand) -->
<g id="edge2" class="edge">
<title>[root] aws_autoscaling_group.example (expand)-&gt;[root] aws_lb_target_group.asg (expand)</title>
<path fill="none" stroke="#000000" d="M584.4187,-359.8314C576.6619,-351.3694 567.2931,-341.1489 558.8123,-331.8971"/>
<polygon fill="#000000" stroke="#000000" points="561.2895,-329.4198 551.9521,-324.4133 556.1294,-334.1499 561.2895,-329.4198"/>
</g>
<!-- [root] data.aws_subnets.default (expand) -->
<g id="node11" class="node">
<title>[root] data.aws_subnets.default (expand)</title>
<polygon fill="none" stroke="#000000" points="403.0243,-180 247.1223,-180 247.1223,-144 403.0243,-144 403.0243,-180"/>
<text text-anchor="middle" x="325.0733" y="-157.8" font-family="Times,serif" font-size="14.00" fill="#000000">data.aws_subnets.default</text>
</g>
<!-- [root] aws_autoscaling_group.example (expand)&#45;&gt;[root] data.aws_subnets.default (expand) -->
<g id="edge3" class="edge">
<title>[root] aws_autoscaling_group.example (expand)-&gt;[root] data.aws_subnets.default (expand)</title>
<path fill="none" stroke="#000000" d="M501.1786,-360.8432C414.2172,-345.7922 301.742,-325.9947 300.0733,-324 268.2775,-285.9924 291.3027,-224.7388 309.2819,-189.4472"/>
<polygon fill="#000000" stroke="#000000" points="312.5804,-190.6975 314.1695,-180.2225 306.3949,-187.4202 312.5804,-190.6975"/>
</g>
<!-- [root] aws_key_pair.generated_key (expand) -->
<g id="node2" class="node">
<title>[root] aws_key_pair.generated_key (expand)</title>
<polygon fill="none" stroke="#000000" points="929.4437,-252 750.7029,-252 750.7029,-216 929.4437,-216 929.4437,-252"/>
<text text-anchor="middle" x="840.0733" y="-229.8" font-family="Times,serif" font-size="14.00" fill="#000000">aws_key_pair.generated_key</text>
</g>
<!-- [root] provider[&quot;registry.terraform.io/hashicorp/aws&quot;] -->
<g id="node15" class="node">
<title>[root] provider["registry.terraform.io/hashicorp/aws"]</title>
<polygon fill="none" stroke="#000000" points="657.0733,-36 382.0828,-18 657.0733,0 932.0638,-18 657.0733,-36"/>
<text text-anchor="middle" x="657.0733" y="-13.8" font-family="Times,serif" font-size="14.00" fill="#000000">provider["registry.terraform.io/hashicorp/aws"]</text>
</g>
<!-- [root] aws_key_pair.generated_key (expand)&#45;&gt;[root] provider[&quot;registry.terraform.io/hashicorp/aws&quot;] -->
<g id="edge4" class="edge">
<title>[root] aws_key_pair.generated_key (expand)-&gt;[root] provider["registry.terraform.io/hashicorp/aws"]</title>
<path fill="none" stroke="#000000" d="M839.8633,-215.7184C838.8522,-196.4918 834.9414,-166.0282 821.0733,-144 791.1442,-96.4604 736.5413,-59.9663 698.6029,-38.7734"/>
<polygon fill="#000000" stroke="#000000" points="700.2746,-35.6985 689.8211,-33.9736 696.9173,-41.8409 700.2746,-35.6985"/>
</g>
<!-- [root] tls_private_key.pk (expand) -->
<g id="node17" class="node">
<title>[root] tls_private_key.pk (expand)</title>
<polygon fill="none" stroke="#000000" points="1033.8848,-180 914.2618,-180 914.2618,-144 1033.8848,-144 1033.8848,-180"/>
<text text-anchor="middle" x="974.0733" y="-157.8" font-family="Times,serif" font-size="14.00" fill="#000000">tls_private_key.pk</text>
</g>
<!-- [root] aws_key_pair.generated_key (expand)&#45;&gt;[root] tls_private_key.pk (expand) -->
<g id="edge5" class="edge">
<title>[root] aws_key_pair.generated_key (expand)-&gt;[root] tls_private_key.pk (expand)</title>
<path fill="none" stroke="#000000" d="M873.8872,-215.8314C891.344,-206.4516 912.822,-194.9112 931.4085,-184.9244"/>
<polygon fill="#000000" stroke="#000000" points="933.1179,-187.9792 940.2703,-180.1628 929.8047,-181.8129 933.1179,-187.9792"/>
</g>
<!-- [root] var.keyname -->
<g id="node18" class="node">
<title>[root] var.keyname</title>
<polygon fill="none" stroke="#000000" points="805.9829,-180 724.1637,-180 724.1637,-144 811.9829,-144 811.9829,-174 805.9829,-180"/>
<polyline fill="none" stroke="#000000" points="805.9829,-180 805.9829,-174 "/>
<polyline fill="none" stroke="#000000" points="811.9829,-174 805.9829,-174 "/>
<text text-anchor="middle" x="768.0733" y="-157.8" font-family="Times,serif" font-size="14.00" fill="#000000">var.keyname</text>
</g>
<!-- [root] aws_key_pair.generated_key (expand)&#45;&gt;[root] var.keyname -->
<g id="edge6" class="edge">
<title>[root] aws_key_pair.generated_key (expand)-&gt;[root] var.keyname</title>
<path fill="none" stroke="#000000" d="M821.9047,-215.8314C813.3581,-207.2848 803.0176,-196.9443 793.6931,-187.6198"/>
<polygon fill="#000000" stroke="#000000" points="796.0325,-185.0095 786.4866,-180.4133 791.0828,-189.9592 796.0325,-185.0095"/>
</g>
<!-- [root] aws_launch_configuration.example (expand)&#45;&gt;[root] aws_key_pair.generated_key (expand) -->
<g id="edge7" class="edge">
<title>[root] aws_launch_configuration.example (expand)-&gt;[root] aws_key_pair.generated_key (expand)</title>
<path fill="none" stroke="#000000" d="M764.5599,-287.8314C777.2392,-278.7927 792.7329,-267.7476 806.3788,-258.0198"/>
<polygon fill="#000000" stroke="#000000" points="808.4838,-260.8176 814.5949,-252.1628 804.4204,-255.1176 808.4838,-260.8176"/>
</g>
<!-- [root] aws_security_group.instance (expand) -->
<g id="node9" class="node">
<title>[root] aws_security_group.instance (expand)</title>
<polygon fill="none" stroke="#000000" points="733.1849,-252 554.9617,-252 554.9617,-216 733.1849,-216 733.1849,-252"/>
<text text-anchor="middle" x="644.0733" y="-229.8" font-family="Times,serif" font-size="14.00" fill="#000000">aws_security_group.instance</text>
</g>
<!-- [root] aws_launch_configuration.example (expand)&#45;&gt;[root] aws_security_group.instance (expand) -->
<g id="edge8" class="edge">
<title>[root] aws_launch_configuration.example (expand)-&gt;[root] aws_security_group.instance (expand)</title>
<path fill="none" stroke="#000000" d="M715.1008,-287.8314C703.2872,-278.8779 688.8761,-267.9558 676.1298,-258.2955"/>
<polygon fill="#000000" stroke="#000000" points="678.1219,-255.4137 668.0381,-252.1628 673.8938,-260.9925 678.1219,-255.4137"/>
</g>
<!-- [root] aws_lb.example (expand) -->
<g id="node4" class="node">
<title>[root] aws_lb.example (expand)</title>
<polygon fill="none" stroke="#000000" points="421.1555,-252 314.9911,-252 314.9911,-216 421.1555,-216 421.1555,-252"/>
<text text-anchor="middle" x="368.0733" y="-229.8" font-family="Times,serif" font-size="14.00" fill="#000000">aws_lb.example</text>
</g>
<!-- [root] aws_security_group.alb (expand) -->
<g id="node8" class="node">
<title>[root] aws_security_group.alb (expand)</title>
<polygon fill="none" stroke="#000000" points="705.9209,-180 556.2257,-180 556.2257,-144 705.9209,-144 705.9209,-180"/>
<text text-anchor="middle" x="631.0733" y="-157.8" font-family="Times,serif" font-size="14.00" fill="#000000">aws_security_group.alb</text>
</g>
<!-- [root] aws_lb.example (expand)&#45;&gt;[root] aws_security_group.alb (expand) -->
<g id="edge9" class="edge">
<title>[root] aws_lb.example (expand)-&gt;[root] aws_security_group.alb (expand)</title>
<path fill="none" stroke="#000000" d="M421.2953,-219.4297C459.7282,-208.9082 512.1869,-194.5469 555.0303,-182.8179"/>
<polygon fill="#000000" stroke="#000000" points="556.135,-186.1443 564.8559,-180.128 554.2866,-179.3927 556.135,-186.1443"/>
</g>
<!-- [root] aws_lb.example (expand)&#45;&gt;[root] data.aws_subnets.default (expand) -->
<g id="edge10" class="edge">
<title>[root] aws_lb.example (expand)-&gt;[root] data.aws_subnets.default (expand)</title>
<path fill="none" stroke="#000000" d="M357.2226,-215.8314C352.371,-207.7079 346.5516,-197.9637 341.2053,-189.0118"/>
<polygon fill="#000000" stroke="#000000" points="344.2025,-187.2041 336.0701,-180.4133 338.1927,-190.7933 344.2025,-187.2041"/>
</g>
<!-- [root] aws_lb_listener.http (expand) -->
<g id="node5" class="node">
<title>[root] aws_lb_listener.http (expand)</title>
<polygon fill="none" stroke="#000000" points="438.7172,-324 309.4294,-324 309.4294,-288 438.7172,-288 438.7172,-324"/>
<text text-anchor="middle" x="374.0733" y="-301.8" font-family="Times,serif" font-size="14.00" fill="#000000">aws_lb_listener.http</text>
</g>
<!-- [root] aws_lb_listener.http (expand)&#45;&gt;[root] aws_lb.example (expand) -->
<g id="edge11" class="edge">
<title>[root] aws_lb_listener.http (expand)-&gt;[root] aws_lb.example (expand)</title>
<path fill="none" stroke="#000000" d="M372.5592,-287.8314C371.9175,-280.131 371.1545,-270.9743 370.4414,-262.4166"/>
<polygon fill="#000000" stroke="#000000" points="373.9262,-262.088 369.6077,-252.4133 366.9504,-262.6694 373.9262,-262.088"/>
</g>
<!-- [root] aws_lb_listener_rule.asg (expand) -->
<g id="node6" class="node">
<title>[root] aws_lb_listener_rule.asg (expand)</title>
<polygon fill="none" stroke="#000000" points="483.361,-396 328.7856,-396 328.7856,-360 483.361,-360 483.361,-396"/>
<text text-anchor="middle" x="406.0733" y="-373.8" font-family="Times,serif" font-size="14.00" fill="#000000">aws_lb_listener_rule.asg</text>
</g>
<!-- [root] aws_lb_listener_rule.asg (expand)&#45;&gt;[root] aws_lb_listener.http (expand) -->
<g id="edge12" class="edge">
<title>[root] aws_lb_listener_rule.asg (expand)-&gt;[root] aws_lb_listener.http (expand)</title>
<path fill="none" stroke="#000000" d="M397.9983,-359.8314C394.4631,-351.8771 390.2373,-342.369 386.3277,-333.5723"/>
<polygon fill="#000000" stroke="#000000" points="389.5168,-332.1299 382.257,-324.4133 383.1201,-334.9729 389.5168,-332.1299"/>
</g>
<!-- [root] aws_lb_listener_rule.asg (expand)&#45;&gt;[root] aws_lb_target_group.asg (expand) -->
<g id="edge13" class="edge">
<title>[root] aws_lb_listener_rule.asg (expand)-&gt;[root] aws_lb_target_group.asg (expand)</title>
<path fill="none" stroke="#000000" d="M438.6254,-359.8314C455.2781,-350.5368 475.7318,-339.1208 493.5118,-329.1971"/>
<polygon fill="#000000" stroke="#000000" points="495.5054,-332.0927 502.5316,-324.1628 492.0938,-325.9803 495.5054,-332.0927"/>
</g>
<!-- [root] data.aws_vpc.default (expand) -->
<g id="node12" class="node">
<title>[root] data.aws_vpc.default (expand)</title>
<polygon fill="none" stroke="#000000" points="509.2446,-108 374.902,-108 374.902,-72 509.2446,-72 509.2446,-108"/>
<text text-anchor="middle" x="442.0733" y="-85.8" font-family="Times,serif" font-size="14.00" fill="#000000">data.aws_vpc.default</text>
</g>
<!-- [root] aws_lb_target_group.asg (expand)&#45;&gt;[root] data.aws_vpc.default (expand) -->
<g id="edge14" class="edge">
<title>[root] aws_lb_target_group.asg (expand)-&gt;[root] data.aws_vpc.default (expand)</title>
<path fill="none" stroke="#000000" d="M527.3041,-287.9555C511.0292,-250.1556 473.2673,-162.4506 453.9379,-117.5564"/>
<polygon fill="#000000" stroke="#000000" points="457.0551,-115.9458 449.8858,-108.1451 450.6257,-118.714 457.0551,-115.9458"/>
</g>
<!-- [root] var.server_port -->
<g id="node19" class="node">
<title>[root] var.server_port</title>
<polygon fill="none" stroke="#000000" points="622.6948,-108 527.4518,-108 527.4518,-72 628.6948,-72 628.6948,-102 622.6948,-108"/>
<polyline fill="none" stroke="#000000" points="622.6948,-108 622.6948,-102 "/>
<polyline fill="none" stroke="#000000" points="628.6948,-102 622.6948,-102 "/>
<text text-anchor="middle" x="578.0733" y="-85.8" font-family="Times,serif" font-size="14.00" fill="#000000">var.server_port</text>
</g>
<!-- [root] aws_lb_target_group.asg (expand)&#45;&gt;[root] var.server_port -->
<g id="edge15" class="edge">
<title>[root] aws_lb_target_group.asg (expand)-&gt;[root] var.server_port</title>
<path fill="none" stroke="#000000" d="M533.8249,-287.5358C532.3285,-256.945 531.6949,-194.151 547.0733,-144 549.9592,-134.5887 554.7145,-125.0401 559.6441,-116.6428"/>
<polygon fill="#000000" stroke="#000000" points="562.6815,-118.3858 564.9814,-108.0435 556.734,-114.6943 562.6815,-118.3858"/>
</g>
<!-- [root] aws_security_group.alb (expand)&#45;&gt;[root] provider[&quot;registry.terraform.io/hashicorp/aws&quot;] -->
<g id="edge16" class="edge">
<title>[root] aws_security_group.alb (expand)-&gt;[root] provider["registry.terraform.io/hashicorp/aws"]</title>
<path fill="none" stroke="#000000" d="M634.3662,-143.7623C638.8204,-119.0928 646.807,-74.8598 652.0226,-45.9731"/>
<polygon fill="#000000" stroke="#000000" points="655.4745,-46.5524 653.8071,-36.0896 648.5859,-45.3086 655.4745,-46.5524"/>
</g>
<!-- [root] aws_security_group.alb (expand)&#45;&gt;[root] var.server_port -->
<g id="edge17" class="edge">
<title>[root] aws_security_group.alb (expand)-&gt;[root] var.server_port</title>
<path fill="none" stroke="#000000" d="M617.6992,-143.8314C611.6571,-135.6232 604.397,-125.7606 597.7512,-116.7323"/>
<polygon fill="#000000" stroke="#000000" points="600.3744,-114.3918 591.6275,-108.4133 594.737,-118.5415 600.3744,-114.3918"/>
</g>
<!-- [root] aws_security_group.instance (expand)&#45;&gt;[root] aws_security_group.alb (expand) -->
<g id="edge18" class="edge">
<title>[root] aws_security_group.instance (expand)-&gt;[root] aws_security_group.alb (expand)</title>
<path fill="none" stroke="#000000" d="M640.7929,-215.8314C639.4025,-208.131 637.7492,-198.9743 636.2041,-190.4166"/>
<polygon fill="#000000" stroke="#000000" points="639.6191,-189.6322 634.3979,-180.4133 632.7305,-190.8761 639.6191,-189.6322"/>
</g>
<!-- [root] data.aws_subnet.default (expand) -->
<g id="node10" class="node">
<title>[root] data.aws_subnet.default (expand)</title>
<polygon fill="none" stroke="#000000" points="157.0805,-396 7.0661,-396 7.0661,-360 157.0805,-360 157.0805,-396"/>
<text text-anchor="middle" x="82.0733" y="-373.8" font-family="Times,serif" font-size="14.00" fill="#000000">data.aws_subnet.default</text>
</g>
<!-- [root] data.aws_subnet.default (expand)&#45;&gt;[root] data.aws_subnets.default (expand) -->
<g id="edge19" class="edge">
<title>[root] data.aws_subnet.default (expand)-&gt;[root] data.aws_subnets.default (expand)</title>
<path fill="none" stroke="#000000" d="M102.3734,-359.9555C145.7023,-321.4409 247.3176,-231.1161 296.8848,-187.0564"/>
<polygon fill="#000000" stroke="#000000" points="299.5113,-189.4047 304.6601,-180.1451 294.8607,-184.1728 299.5113,-189.4047"/>
</g>
<!-- [root] data.aws_subnets.default (expand)&#45;&gt;[root] data.aws_vpc.default (expand) -->
<g id="edge20" class="edge">
<title>[root] data.aws_subnets.default (expand)-&gt;[root] data.aws_vpc.default (expand)</title>
<path fill="none" stroke="#000000" d="M354.5973,-143.8314C369.5624,-134.6221 387.9119,-123.3301 403.9336,-113.4706"/>
<polygon fill="#000000" stroke="#000000" points="405.8765,-116.3847 412.5587,-108.1628 402.2078,-110.423 405.8765,-116.3847"/>
</g>
<!-- [root] data.aws_vpc.default (expand)&#45;&gt;[root] provider[&quot;registry.terraform.io/hashicorp/aws&quot;] -->
<g id="edge21" class="edge">
<title>[root] data.aws_vpc.default (expand)-&gt;[root] provider["registry.terraform.io/hashicorp/aws"]</title>
<path fill="none" stroke="#000000" d="M496.0494,-71.9243C528.4022,-61.0899 569.4386,-47.3474 601.9872,-36.4475"/>
<polygon fill="#000000" stroke="#000000" points="603.426,-39.6567 611.7969,-33.1623 601.2031,-33.019 603.426,-39.6567"/>
</g>
<!-- [root] output.alb_dns_name -->
<g id="node13" class="node">
<title>[root] output.alb_dns_name</title>
<polygon fill="none" stroke="#000000" points="305.2242,-396 174.9224,-396 174.9224,-360 311.2242,-360 311.2242,-390 305.2242,-396"/>
<polyline fill="none" stroke="#000000" points="305.2242,-396 305.2242,-390 "/>
<polyline fill="none" stroke="#000000" points="311.2242,-390 305.2242,-390 "/>
<text text-anchor="middle" x="243.0733" y="-373.8" font-family="Times,serif" font-size="14.00" fill="#000000">output.alb_dns_name</text>
</g>
<!-- [root] output.alb_dns_name&#45;&gt;[root] aws_lb.example (expand) -->
<g id="edge22" class="edge">
<title>[root] output.alb_dns_name-&gt;[root] aws_lb.example (expand)</title>
<path fill="none" stroke="#000000" d="M252.1968,-359.8745C262.3236,-340.7782 279.9218,-310.4223 300.0733,-288 309.8038,-277.173 321.8685,-266.8309 333.1222,-258.1482"/>
<polygon fill="#000000" stroke="#000000" points="335.2336,-260.9396 341.1282,-252.136 331.0302,-255.3422 335.2336,-260.9396"/>
</g>
<!-- [root] output.subnet_cidr_blocks -->
<g id="node14" class="node">
<title>[root] output.subnet_cidr_blocks</title>
<polygon fill="none" stroke="#000000" points="158.22,-468 -.0734,-468 -.0734,-432 164.22,-432 164.22,-462 158.22,-468"/>
<polyline fill="none" stroke="#000000" points="158.22,-468 158.22,-462 "/>
<polyline fill="none" stroke="#000000" points="164.22,-462 158.22,-462 "/>
<text text-anchor="middle" x="82.0733" y="-445.8" font-family="Times,serif" font-size="14.00" fill="#000000">output.subnet_cidr_blocks</text>
</g>
<!-- [root] output.subnet_cidr_blocks&#45;&gt;[root] data.aws_subnet.default (expand) -->
<g id="edge23" class="edge">
<title>[root] output.subnet_cidr_blocks-&gt;[root] data.aws_subnet.default (expand)</title>
<path fill="none" stroke="#000000" d="M82.0733,-431.8314C82.0733,-424.131 82.0733,-414.9743 82.0733,-406.4166"/>
<polygon fill="#000000" stroke="#000000" points="85.5734,-406.4132 82.0733,-396.4133 78.5734,-406.4133 85.5734,-406.4132"/>
</g>
<!-- [root] provider[&quot;registry.terraform.io/hashicorp/tls&quot;] -->
<g id="node16" class="node">
<title>[root] provider["registry.terraform.io/hashicorp/tls"]</title>
<polygon fill="none" stroke="#000000" points="1134.0733,-108 867.7446,-90 1134.0733,-72 1400.402,-90 1134.0733,-108"/>
<text text-anchor="middle" x="1134.0733" y="-85.8" font-family="Times,serif" font-size="14.00" fill="#000000">provider["registry.terraform.io/hashicorp/tls"]</text>
</g>
<!-- [root] tls_private_key.pk (expand)&#45;&gt;[root] provider[&quot;registry.terraform.io/hashicorp/tls&quot;] -->
<g id="edge32" class="edge">
<title>[root] tls_private_key.pk (expand)-&gt;[root] provider["registry.terraform.io/hashicorp/tls"]</title>
<path fill="none" stroke="#000000" d="M1014.4481,-143.8314C1037.3931,-133.5061 1066.1562,-120.5627 1089.7276,-109.9556"/>
<polygon fill="#000000" stroke="#000000" points="1091.4631,-113.0127 1099.146,-105.7173 1088.5905,-106.6293 1091.4631,-113.0127"/>
</g>
<!-- [root] provider[&quot;registry.terraform.io/hashicorp/aws&quot;] (close) -->
<g id="node20" class="node">
<title>[root] provider["registry.terraform.io/hashicorp/aws"] (close)</title>
<ellipse fill="none" stroke="#000000" cx="467.0733" cy="-450" rx="247.2168" ry="18"/>
<text text-anchor="middle" x="467.0733" y="-445.8" font-family="Times,serif" font-size="14.00" fill="#000000">[root] provider["registry.terraform.io/hashicorp/aws"] (close)</text>
</g>
<!-- [root] provider[&quot;registry.terraform.io/hashicorp/aws&quot;] (close)&#45;&gt;[root] aws_autoscaling_group.example (expand) -->
<g id="edge24" class="edge">
<title>[root] provider["registry.terraform.io/hashicorp/aws"] (close)-&gt;[root] aws_autoscaling_group.example (expand)</title>
<path fill="none" stroke="#000000" d="M500.5415,-432.0171C518.1287,-422.5673 539.8691,-410.8858 558.6288,-400.806"/>
<polygon fill="#000000" stroke="#000000" points="560.415,-403.8195 567.5673,-396.0032 557.1018,-397.6533 560.415,-403.8195"/>
</g>
<!-- [root] provider[&quot;registry.terraform.io/hashicorp/aws&quot;] (close)&#45;&gt;[root] aws_lb_listener_rule.asg (expand) -->
<g id="edge25" class="edge">
<title>[root] provider["registry.terraform.io/hashicorp/aws"] (close)-&gt;[root] aws_lb_listener_rule.asg (expand)</title>
<path fill="none" stroke="#000000" d="M451.6804,-431.8314C444.5829,-423.454 436.0253,-413.3531 428.2493,-404.1749"/>
<polygon fill="#000000" stroke="#000000" points="430.8081,-401.7807 421.6734,-396.4133 425.4672,-406.3056 430.8081,-401.7807"/>
</g>
<!-- [root] provider[&quot;registry.terraform.io/hashicorp/aws&quot;] (close)&#45;&gt;[root] data.aws_subnet.default (expand) -->
<g id="edge26" class="edge">
<title>[root] provider["registry.terraform.io/hashicorp/aws"] (close)-&gt;[root] data.aws_subnet.default (expand)</title>
<path fill="none" stroke="#000000" d="M369.995,-433.436C313.4814,-423.5908 240.6284,-410.5546 167.0648,-396.1653"/>
<polygon fill="#000000" stroke="#000000" points="167.6404,-392.7116 157.1534,-394.2192 166.2916,-399.5804 167.6404,-392.7116"/>
</g>
<!-- [root] provider[&quot;registry.terraform.io/hashicorp/tls&quot;] (close) -->
<g id="node21" class="node">
<title>[root] provider["registry.terraform.io/hashicorp/tls"] (close)</title>
<ellipse fill="none" stroke="#000000" cx="974.0733" cy="-450" rx="241.4353" ry="18"/>
<text text-anchor="middle" x="974.0733" y="-445.8" font-family="Times,serif" font-size="14.00" fill="#000000">[root] provider["registry.terraform.io/hashicorp/tls"] (close)</text>
</g>
<!-- [root] provider[&quot;registry.terraform.io/hashicorp/tls&quot;] (close)&#45;&gt;[root] tls_private_key.pk (expand) -->
<g id="edge27" class="edge">
<title>[root] provider["registry.terraform.io/hashicorp/tls"] (close)-&gt;[root] tls_private_key.pk (expand)</title>
<path fill="none" stroke="#000000" d="M974.0733,-431.9843C974.0733,-383.2939 974.0733,-248.7961 974.0733,-190.0573"/>
<polygon fill="#000000" stroke="#000000" points="977.5734,-190.0088 974.0733,-180.0089 970.5734,-190.0089 977.5734,-190.0088"/>
</g>
<!-- [root] root -->
<g id="node22" class="node">
<title>[root] root</title>
<ellipse fill="none" stroke="#000000" cx="329.0733" cy="-522" rx="50.9823" ry="18"/>
<text text-anchor="middle" x="329.0733" y="-517.8" font-family="Times,serif" font-size="14.00" fill="#000000">[root] root</text>
</g>
<!-- [root] root&#45;&gt;[root] output.alb_dns_name -->
<g id="edge28" class="edge">
<title>[root] root-&gt;[root] output.alb_dns_name</title>
<path fill="none" stroke="#000000" d="M283.553,-513.7121C257.5451,-506.3927 227.0198,-492.8345 211.0733,-468 198.5424,-448.4848 209.2527,-423.4323 221.5507,-404.7165"/>
<polygon fill="#000000" stroke="#000000" points="224.5445,-406.5435 227.4272,-396.3484 218.8159,-402.5207 224.5445,-406.5435"/>
</g>
<!-- [root] root&#45;&gt;[root] output.subnet_cidr_blocks -->
<g id="edge29" class="edge">
<title>[root] root-&gt;[root] output.subnet_cidr_blocks</title>
<path fill="none" stroke="#000000" d="M289.6623,-510.5118C253.1945,-499.8815 198.0978,-483.8209 153.8291,-470.9167"/>
<polygon fill="#000000" stroke="#000000" points="154.5634,-467.4851 143.9835,-468.0467 152.6044,-474.2054 154.5634,-467.4851"/>
</g>
<!-- [root] root&#45;&gt;[root] provider[&quot;registry.terraform.io/hashicorp/aws&quot;] (close) -->
<g id="edge30" class="edge">
<title>[root] root-&gt;[root] provider["registry.terraform.io/hashicorp/aws"] (close)</title>
<path fill="none" stroke="#000000" d="M357.667,-507.0816C376.7328,-497.1342 402.1536,-483.8712 423.6925,-472.6334"/>
<polygon fill="#000000" stroke="#000000" points="425.4092,-475.6856 432.656,-467.9568 422.1712,-469.4795 425.4092,-475.6856"/>
</g>
<!-- [root] root&#45;&gt;[root] provider[&quot;registry.terraform.io/hashicorp/tls&quot;] (close) -->
<g id="edge31" class="edge">
<title>[root] root-&gt;[root] provider["registry.terraform.io/hashicorp/tls"] (close)</title>
<path fill="none" stroke="#000000" d="M377.8175,-516.5588C472.7542,-505.9612 685.7423,-482.1858 829.7127,-466.1147"/>
<polygon fill="#000000" stroke="#000000" points="830.4068,-469.559 839.9567,-464.9712 829.6301,-462.6022 830.4068,-469.559"/>
</g>
</g>
</svg>